<?xml version="1.0" encoding="utf-8"?>
<!-- Generator: Adobe Illustrator 24.1.2, SVG Export Plug-In . SVG Version: 6.00 Build 0)  -->
<svg version="1.1" id="Camada_1" xmlns="http://www.w3.org/2000/svg" xmlns:xlink="http://www.w3.org/1999/xlink" x="0px" y="0px"
	 viewBox="0 0 105.2 32.6" style="enable-background:new 0 0 105.2 32.6;" xml:space="preserve">
<g>
	<path d="M16.5,4.2c0-2.8,1.7-4.2,5.2-4.2S27,1.4,27,4.2c0,1.4-0.4,2.5-1.3,3.1c-0.8,0.6-2.2,0.9-3.9,0.9s-3.1-0.3-4-0.9
		C16.9,6.7,16.5,5.6,16.5,4.2z"/>
	<g>
		<path d="M0,26V0.7h10v23.1c0,0.9,0.6,1.3,1.8,1.3l-0.7,7.5h-4C2.4,32.6,0,30.4,0,26z"/>
		<rect x="16.7" y="9.1" width="10.2" height="23"/>
		<path d="M48.8,8c4.6,0,6.9,2.2,6.9,6.7v17.4H45.3V16.9c0-0.5-0.3-0.8-0.8-0.8c-0.5,0-1.1,0.2-1.8,0.5v15.5H32.6V8.6h9.3l0.3,1.5
			C44.2,8.7,46.4,8,48.8,8z"/>
		<path d="M85.2,32.1h-11l-2.8-7.7h-0.2v7.7h-10V0.7h10v16.2h0.2l3.4-8.2h10.6l-5.5,12.2c0.6,1.3,1.5,3.3,2.7,5.8
			C83.8,29.2,84.7,31,85.2,32.1z"/>
		<path d="M98.9,19v13.1H88.8V8.6h8.7l0.3,1.6H98c0.8-0.7,1.7-1.2,2.7-1.5c1-0.3,2.5-0.4,4.5-0.4l-0.3,8.1h-3.3
			c-1,0-1.7,0.2-2.1,0.5C99.1,17.3,98.9,18,98.9,19z"/>
	</g>
</g>
</svg>
